<svg width="70" height="42" viewBox="0 0 70 42" fill="transparent" xmlns="http://www.w3.org/2000/svg">
<rect width="70" height="42" fill="transparent"/>
<g clip-path="url(#clip0_0_1)">
<rect width="1440" height="4398" transform="translate(-1047 -1820)" fill="transparent"/>
<rect x="-986.5" y="-644.5" width="1318" height="987" rx="24.5" fill="transparent" stroke="#9A9A9A"/>
<g clip-path="url(#clip1_0_1)">
<rect width="70" height="70" transform="translate(0 -14)" fill="transparent"/>
<path d="M70 40.215C68.9812 40.6003 67.8566 40.5995 66.8384 40.2126C65.8202 39.8257 64.9788 39.0796 64.4729 38.115L54.4104 24.1996L52.9521 22.2542L41.2767 38.1325C40.8012 39.0566 40.0054 39.776 39.0381 40.156C38.0708 40.5361 36.9982 40.5508 36.0208 40.1975L51.065 20.0142L37.0708 1.78207C38.0771 1.41945 39.1775 1.41465 40.1869 1.76846C41.1963 2.12227 42.0529 2.81308 42.6125 3.72457L53.0425 17.8121L63.5308 3.7829C64.01 2.8752 64.8059 2.1752 65.7674 1.81599C66.7289 1.45677 67.7889 1.46338 68.7458 1.83457L63.315 9.04165L55.9592 18.6171C55.7549 18.7993 55.5914 19.0226 55.4795 19.2724C55.3676 19.5223 55.3097 19.7929 55.3097 20.0667C55.3097 20.3404 55.3676 20.611 55.4795 20.8609C55.5914 21.1107 55.7549 21.334 55.9592 21.5162L69.9708 40.2179L70 40.215ZM0.0058378 19.7633L1.23084 13.7112C4.59667 1.74415 18.3167 -3.2346 27.755 4.17374C33.2821 8.51665 34.6617 14.665 34.3904 21.595H3.255C2.75042 33.9704 11.6813 41.4429 23.1 37.625C24.9511 36.9587 26.608 35.8436 27.9223 34.3797C29.2366 32.9157 30.1672 31.1486 30.6308 29.2367C31.2346 27.2942 32.2292 26.9617 34.055 27.5217C33.7507 29.8911 32.9131 32.1607 31.6052 34.1597C30.2973 36.1588 28.553 37.8352 26.5038 39.0629C23.1187 40.9145 19.2349 41.6484 15.4077 41.1596C11.5804 40.6709 8.00567 38.9845 5.19459 36.3417C2.41509 33.2132 0.735227 29.2614 0.411254 25.0892C0.411254 24.4037 0.177921 23.7621 0.0204211 23.1467C0.00622289 22.0199 -0.000582809 20.8931 4.47156e-06 19.7662L0.0058378 19.7633ZM3.29292 18.9292H31.4504C31.2754 9.95749 25.6142 3.59332 18.0629 3.53499C9.65709 3.41832 3.64292 9.64249 3.2725 18.8883L3.29292 18.9292Z" fill="black"/>
</g>
</g>
<defs>
<clipPath id="clip0_0_1">
<rect width="1440" height="4398" fill="transparent" transform="translate(-1047 -1820)"/>
</clipPath>
<clipPath id="clip1_0_1">
<rect width="70" height="70" fill="transparent" transform="translate(0 -14)"/>
</clipPath>
</defs>
</svg>
