<svg width="143" height="150" viewBox="0 0 143 150" fill="transparent" xmlns="http://www.w3.org/2000/svg">
<rect width="143" height="150" fill="transparent"/>
<g clip-path="url(#clip0_0_1)">
<rect width="1440" height="4398" transform="translate(-1085 -1220)" fill="transparent"/>
<rect x="-1025.5" y="-62.5" width="1318" height="987" rx="24.5" fill="transparent" stroke="#9A9A9A"/>
<path d="M51.3999 20.0002H91.3999V30.0002H51.3999V20.0002ZM51.3999 80.0001H91.3999V90.0001H51.3999V80.0001ZM51.3999 100H91.3999V110H51.3999V100ZM142.8 150H0L12.5 100H31.4V10.0002C31.3917 8.68325 31.6573 7.37898 32.18 6.17018C32.7 4.97018 33.41 3.91018 34.29 2.97018C35.1893 2.0216 36.2801 1.27509 37.49 0.780186C38.7285 0.262965 40.0577 -0.00220023 41.3999 0.000187844H101.4C102.717 -0.00809345 104.021 0.257527 105.23 0.780186C106.43 1.30019 107.49 2.01019 108.43 2.89018C109.378 3.78955 110.125 4.88033 110.62 6.09018C111.14 7.34018 111.4 8.65018 111.4 10.0002V100H130.3L142.8 150ZM41.3999 120H101.4V10.0002H41.3999V120ZM130 140L122.5 110H111.4V130H31.4V110H20.3L12.8 140H130Z" fill="#A0927F"/>
</g>
<defs>
<clipPath id="clip0_0_1">
<rect width="1440" height="4398" fill="transparent" transform="translate(-1085 -1220)"/>
</clipPath>
</defs>
</svg>
