<svg width="63" height="70" viewBox="0 0 63 70" fill="transparent" xmlns="http://www.w3.org/2000/svg">
<rect width="63" height="70" fill="transparent"/>
<g clip-path="url(#clip0_0_1)">
<rect width="1440" height="4398" transform="translate(-1180 -1806)" fill="transparent"/>
<rect x="-1119.5" y="-630.5" width="1318" height="987" rx="24.5" fill="transparent" stroke="#9A9A9A"/>
<g clip-path="url(#clip1_0_1)">
<path d="M31.0035 69.8705C30.0407 69.8705 29.142 69.6138 28.3076 69.1645L19.7703 64.0935C18.4865 63.3874 19.1284 63.1307 19.5135 63.0023C21.2466 62.4246 21.5675 62.2962 23.3647 61.269C23.5575 61.1406 23.8143 61.2048 24.0066 61.3332L30.5542 65.2488C30.8109 65.3772 31.1318 65.3772 31.3244 65.2488L56.9362 50.4212C57.1929 50.2928 57.3213 50.0361 57.3213 49.7151V20.1236C57.3213 19.8026 57.1929 19.5459 56.9362 19.4175L31.3244 4.65379C31.0676 4.52542 30.7467 4.52542 30.5542 4.65379L4.94239 19.4177C4.68564 19.5461 4.55727 19.867 4.55727 20.1238V49.7151C4.55727 49.9719 4.68564 50.2928 4.94239 50.4212L11.9392 54.465C15.7265 56.3906 18.1012 54.144 18.1012 51.8975V22.691C18.1012 22.3059 18.4224 21.9208 18.8717 21.9208H22.1454C22.5306 21.9208 22.9157 22.2417 22.9157 22.691V51.8973C22.9157 56.9683 20.1554 59.9209 15.3411 59.9209C13.8648 59.9209 12.7095 59.9209 9.43595 58.3162L2.69585 54.465C1.02699 53.5019 0 51.7047 0 49.7791V20.188C0 18.2624 1.02699 16.4651 2.69585 15.5021L28.3076 0.67445C29.9123 -0.224166 32.0946 -0.224166 33.6993 0.67445L59.3111 15.5021C60.9799 16.4649 62.0069 18.2621 62.0069 20.188V49.7793C62.0069 51.7049 60.9799 53.5022 59.3111 54.465L33.6993 69.2931C32.8649 69.6782 31.9021 69.8708 31.0035 69.8708V69.8705ZM38.8987 49.5223C27.6655 49.5223 25.3548 44.3874 25.3548 40.0224C25.3548 39.6373 25.6757 39.2522 26.125 39.2522H29.4627C29.8479 39.2522 30.169 39.5089 30.169 39.8941C30.6825 43.296 32.1588 44.9651 38.9629 44.9651C44.3548 44.9651 46.6658 43.7455 46.6658 40.8571C46.6658 39.188 46.0239 37.9685 37.6149 37.1338C30.6183 36.4277 26.2534 34.8873 26.2534 29.303C26.2534 24.1034 30.6181 21.0224 37.9359 21.0224C46.152 21.0224 50.1961 23.8466 50.7095 30.0088C50.7095 30.2014 50.6454 30.3939 50.517 30.5865C50.3886 30.7149 50.1961 30.8432 50.0035 30.8432H46.6658C46.3446 30.8432 46.0239 30.5865 45.9595 30.2656C45.1892 26.7353 43.1994 25.5799 37.9359 25.5799C32.0307 25.5799 31.3244 27.6339 31.3244 29.1744C31.3244 31.036 32.1588 31.6135 40.1182 32.6405C48.0137 33.6675 51.7365 35.144 51.7365 40.6643C51.6724 46.313 47.0509 49.5223 38.8987 49.5223Z" fill="#539E43"/>
</g>
</g>
<defs>
<clipPath id="clip0_0_1">
<rect width="1440" height="4398" fill="transparent" transform="translate(-1180 -1806)"/>
</clipPath>
<clipPath id="clip1_0_1">
<rect width="62.0069" height="70" fill="transparent"/>
</clipPath>
</defs>
</svg>
