<svg width="62" height="70" viewBox="0 0 62 70" fill="transparent" xmlns="http://www.w3.org/2000/svg">
<rect width="62" height="70" fill="transparent"/>
<g clip-path="url(#clip0_0_1)">
<rect width="1440" height="4398" transform="translate(-1120 -1974)" fill="transparent"/>
<rect x="-1059.5" y="-798.5" width="1318" height="987" rx="24.5" fill="transparent" stroke="#9A9A9A"/>
<g clip-path="url(#clip1_0_1)">
<path d="M48.802 33.5271L44.5471 24.9559L45.9037 30.6907L48.802 33.5271Z" fill="#73B08F"/>
<path d="M43.8087 21.9522L47.093 35.8263L36.5314 24.6654L21.1398 10.2977L17.2114 0L43.8087 21.9522Z" fill="#C5E4D3"/>
<path d="M37.3774 25.0091L23.5466 18.3783L15.9962 10.267L15.0085 4.92346L37.3774 25.0091Z" fill="#76C39B"/>
<path d="M47.9572 36.4348L34.9012 33.1062L9.79233 18.6627L0 5.22363L37.6629 25.1938L47.9574 36.4345L47.9572 36.4348Z" fill="transparent"/>
<path d="M34.3024 32.7229V33.1086L32.6162 36.2581L23.8096 33.3656L7.44518 21.089L1.07446 11.9617L8.38203 16.3326L9.50635 18.068L34.3026 32.7229H34.3024Z" fill="#73B08F"/>
<path d="M10.5769 23.4956L9.35889 23.3539L5.09512 21.7966L13.8255 29.7953L16.1266 31.565L25.263 34.6088L10.5767 23.4953L10.5769 23.4956Z" fill="transparent" stroke="white" stroke-width="1.122"/>
<path d="M46.3709 35.8383L46.1859 42.927L45.5074 41.7684L41.5611 41.4956L32.4349 36.2473L34.5316 32.5665L46.3709 35.8383Z" fill="#76C39B"/>
<path d="M9.22897 28.0298L20.5889 36.711L32.3879 40.6384L41.4884 41.465L32.4508 36.2289L9.22897 28.0298Z" fill="#C5E4D3"/>
<path d="M14.7376 34.9453L22.6301 39.3234L31.8181 40.2483L20.7188 36.7953L18.9304 35.6853L14.7374 34.9453H14.7376Z" fill="#76C39B"/>
<path d="M32.2772 40.0707L19.3622 38.944L26.0153 41.4975L30.3855 42.0983L32.277 40.0707H32.2772Z" fill="#73B08F"/>
<path d="M29.3518 42.0617L28.2419 42.2254L23.0621 42.9616L25.5903 41.2435L29.3516 42.0617H29.3518Z" fill="#76C39B"/>
<path d="M37.624 43.1806L37.3711 43.6289L18.4678 54.5822L14.7376 59.5146L16.0652 54.1979L20.1746 48.5613L31.9341 40.6184L37.624 43.1806Z" fill="#76C39B"/>
<path d="M16.9575 48.573L13.6277 52.9511V51.0395L16.9575 48.5728V48.573Z" fill="transparent"/>
<path d="M44.3978 43.9483L31.7565 52.5192L30.7082 50.7308L26.3301 59.9804L27.3165 61.3372L28.0566 69.9082L22.7536 60.1039L27.0701 49.4977L37.6145 42.9613L44.3975 43.948L44.3978 43.9483Z" fill="#C5E4D3"/>
<path d="M27.0704 49.3129L18.6224 53.8761L18.3755 60.1657L20.9655 68.6137V64.2969L27.0704 49.3126V49.3129Z" fill="transparent"/>
<path d="M16.5874 61.3989L16.7108 61.8307L17.8208 66.5171L16.3407 65.5922L16.5876 61.3989H16.5874Z" fill="#73B08F"/>
<path d="M31.9756 51.9174L30.8424 50.519L26.1097 59.4824L33.6419 69.3356L31.7757 64.9494L31.9756 51.9176V51.9174Z" fill="#73B08F"/>
<path d="M32.8664 51.3823L31.88 51.8997L31.8184 62.6363L33.6683 66.5169L37.1213 65.2234L36.9981 62.6363L33.2366 58.9495L32.8667 51.3823H32.8664Z" fill="#76C39B"/>
<path d="M49.8942 43.8167L44.1592 45.4199L37.9311 50.7229L34.5397 50.5997L44.3443 44.0017L49.8939 43.8167H49.8942Z" fill="transparent"/>
<path d="M47.5369 44.525L45.7397 41.2185L29.5656 39.9523L36.8183 42.9771L47.5369 44.5248V44.525Z" fill="#73B08F"/>
<path d="M38.108 50.5175L38.9097 52.4082L40.6362 53.6469H40.9445L40.8213 55.6678L35.518 57.8843L33.7297 53.7773L33.2366 51.3652L34.8399 50.0613L38.108 50.5177V50.5175Z" fill="#73B08F"/>
<path d="M40.9445 61.1521L37.7379 59.7339L36.5048 62.2623L36.9363 62.8789L36.8747 65.5921L39.218 68.2434L38.8478 63.2488L39.4028 63.0021L41.2528 64.7904L40.3895 62.7554L38.4163 61.7073L38.8478 60.9673L40.9445 61.8921V61.1521Z" fill="transparent"/>
<path d="M41.7459 50.6079L40.5128 53.5678L40.7597 56.096L43.2878 59.2409L42.9793 54.1844L43.3494 53.9377L45.3224 55.6645L44.521 53.7529L42.3011 52.5811L42.671 51.9645L44.9527 52.9512L44.8909 52.088L41.7461 50.6079H41.7459Z" fill="transparent"/>
<path d="M53.1537 37.5354L46.3093 35.9321V42.345L47.1107 43.7633L53.1537 43.8249L58.8885 45.7983L58.7036 44.9967L55.1888 42.9616L48.1591 40.1868L52.1673 40.1252L48.2825 38.3368L53.1537 37.5354Z" fill="#C5E4D3"/>
<path d="M61.1373 43.3977L58.5475 39.2044L52.6278 37.416L47.9413 38.2795L51.6413 40.1292L48.188 40.2527L54.6628 43.0275L58.3625 44.8159L61.1373 43.3974V43.3977Z" fill="#73B08F"/>
<path d="M57.7625 48.3881L58.7492 46.9082L58.0091 44.9966L61.0922 43.2699L61.1539 46.7848L59.3041 48.4497L57.7625 48.3881Z" fill="transparent"/>
<path d="M60.2348 42.8716L58.1185 41.8839L56.9896 42.8716" fill="transparent"/>
<path d="M60.2348 42.8716L58.1185 41.8839L56.9896 42.8716" stroke="white" stroke-width="0.3"/>
</g>
</g>
<defs>
<clipPath id="clip0_0_1">
<rect width="1440" height="4398" fill="transparent" transform="translate(-1120 -1974)"/>
</clipPath>
<clipPath id="clip1_0_1">
<rect width="61.3699" height="70" fill="transparent"/>
</clipPath>
</defs>
</svg>
