<svg width="106" height="60" viewBox="0 0 106 60" fill="transparent" xmlns="http://www.w3.org/2000/svg">
<rect width="106" height="60" fill="transparent"/>
<g clip-path="url(#clip0_0_1)">
<rect width="1440" height="4398" transform="translate(-967 -2334)" fill="transparent"/>
<path d="M53 59.6187C81.9949 59.6187 105.5 47.2534 105.5 32C105.5 16.7466 81.9949 4.38123 53 4.38123C24.0051 4.38123 0.5 16.7466 0.5 32C0.5 47.2534 24.0051 59.6187 53 59.6187Z" fill="url(#paint0_radial_0_1)"/>
<path d="M53 57.5676C80.8621 57.5676 103.449 46.1207 103.449 32.0001C103.449 17.8796 80.8621 6.43262 53 6.43262C25.1379 6.43262 2.55125 17.8796 2.55125 32.0001C2.55125 46.1207 25.1379 57.5676 53 57.5676Z" fill="#6280B6"/>
<path d="M63.2188 40.25L65.72 27.3725C66.0763 26.2704 66.135 25.0937 65.89 23.9617C65.645 22.8296 65.1051 21.7824 64.325 20.9263C62.1475 19.3801 59.4812 18.6802 56.825 18.9575H52.5012L53.7425 12.5825C53.7651 12.4638 53.7613 12.3416 53.7312 12.2246C53.7012 12.1075 53.6457 11.9986 53.5687 11.9054C53.4917 11.8123 53.3951 11.7373 53.2857 11.6858C53.1764 11.6343 53.0571 11.6076 52.9362 11.6075H46.9363C46.7457 11.6075 46.5611 11.6737 46.414 11.7948C46.2669 11.9158 46.1665 12.0843 46.13 12.2713L43.4712 25.9438C43.2666 24.4819 42.6457 23.1098 41.6825 21.9913C40.6101 20.9173 39.3164 20.0902 37.8915 19.5675C36.4667 19.0448 34.945 18.8392 33.4325 18.965H21.875C21.6845 18.965 21.4999 19.0312 21.3528 19.1523C21.2057 19.2733 21.1053 19.4418 21.0687 19.6288L15.6912 47.3038C15.6686 47.4225 15.6725 47.5447 15.7025 47.6618C15.7326 47.7788 15.7881 47.8878 15.8651 47.9809C15.9421 48.074 16.0387 48.149 16.148 48.2005C16.2573 48.252 16.3767 48.2787 16.4975 48.2788H22.5087C22.6993 48.2788 22.8839 48.2127 23.031 48.0916C23.1781 47.9705 23.2785 47.802 23.315 47.615L24.6162 40.9213H29.1162C31.1031 40.9743 33.0863 40.7214 34.9963 40.1713C36.6066 39.6385 38.0793 38.7562 39.3087 37.5875C40.3163 36.6698 41.1764 35.6022 41.8588 34.4225L40.7825 39.9538C40.7599 40.0725 40.7637 40.1947 40.7938 40.3118C40.8238 40.4288 40.8793 40.5378 40.9563 40.6309C41.0333 40.724 41.1299 40.799 41.2393 40.8505C41.3486 40.902 41.4679 40.9287 41.5887 40.9288H47.5888C47.7793 40.9288 47.9639 40.8627 48.111 40.7416C48.2581 40.6205 48.3585 40.452 48.395 40.265L51.3463 25.0738H55.4488C57.1963 25.0738 57.6987 25.4225 57.8487 25.5725C57.9987 25.7225 58.2238 26.1913 57.9425 27.7063L55.5613 39.95C55.5386 40.0687 55.5425 40.191 55.5725 40.308C55.6026 40.4251 55.6581 40.534 55.7351 40.6271C55.8121 40.7203 55.9087 40.7952 56.018 40.8467C56.1273 40.8982 56.2467 40.925 56.3675 40.925H62.4425C62.6294 40.9177 62.8082 40.8469 62.9494 40.7241C63.0906 40.6014 63.1856 40.4341 63.2188 40.25V40.25ZM35.4875 29.6225C35.3041 31.1969 34.5568 32.6516 33.3837 33.7175C31.9103 34.6341 30.1825 35.0558 28.4525 34.9213H25.7825L27.7137 24.98H31.1675C33.7063 24.98 34.7263 25.5238 35.1388 25.9775C35.4534 26.5251 35.6473 27.1336 35.7075 27.7623C35.7676 28.391 35.6926 29.0252 35.4875 29.6225V29.6225Z" fill="transparent"/>
<path d="M88.7975 21.9949C87.7251 20.9209 86.4314 20.0938 85.0066 19.5711C83.5817 19.0485 82.06 18.8429 80.5475 18.9687H68.9563C68.7657 18.9686 68.5811 19.0348 68.434 19.1559C68.287 19.277 68.1866 19.4454 68.15 19.6324L62.7725 47.3074C62.7499 47.4261 62.7537 47.5483 62.7838 47.6654C62.8138 47.7824 62.8693 47.8914 62.9464 47.9845C63.0234 48.0776 63.12 48.1526 63.2293 48.2041C63.3386 48.2556 63.4579 48.2823 63.5788 48.2824H69.6088C69.7993 48.2825 69.9839 48.2163 70.131 48.0952C70.2781 47.9741 70.3785 47.8056 70.415 47.6187L71.7163 40.9249H76.2163C78.2031 40.978 80.1863 40.725 82.0963 40.1749C83.7067 39.6421 85.1793 38.7598 86.4088 37.5911C88.5143 35.6936 89.933 33.1529 90.4438 30.3649C90.8472 28.9386 90.9084 27.4373 90.6224 25.9829C90.3363 24.5285 89.7111 23.1621 88.7975 21.9949V21.9949ZM82.5463 29.6224C82.3629 31.1968 81.6155 32.6514 80.4425 33.7174C78.9654 34.635 77.2334 35.0555 75.5 34.9174H72.8375L74.7688 24.9762H78.2225C80.7613 24.9762 81.7813 25.5199 82.1938 25.9736C82.5096 26.5214 82.7044 27.1305 82.7652 27.7598C82.826 28.3892 82.7514 29.0243 82.5463 29.6224V29.6224Z" fill="transparent"/>
<path d="M31.1675 24.155C31.9766 24.0532 32.7978 24.1127 33.5838 24.3303C34.3697 24.5479 35.1047 24.9191 35.7462 25.4225C36.1602 26.0599 36.4242 26.7828 36.5184 27.5369C36.6126 28.291 36.5345 29.0567 36.29 29.7763C36.0756 31.5481 35.2191 33.1798 33.8825 34.3625C32.2705 35.4008 30.365 35.8877 28.4525 35.75H24.785L27.035 24.1663L31.1675 24.155ZM16.4787 47.465H22.5087L23.9375 40.1075H29.1012C31.0019 40.1594 32.8992 39.9178 34.7262 39.3913C36.2257 38.8962 37.5962 38.0738 38.7387 36.9838C40.7163 35.2048 42.0483 32.8204 42.5262 30.2038C42.9046 28.9026 42.9711 27.5305 42.7203 26.1988C42.4695 24.867 41.9084 23.6132 41.0825 22.5388C40.0866 21.5538 38.8879 20.7979 37.5699 20.3238C36.2519 19.8497 34.8463 19.6688 33.4512 19.7938H21.875L16.4787 47.465Z" fill="#000004"/>
<path d="M46.9512 12.4325H52.9512L51.5 19.79H56.8287C59.2762 19.5338 61.735 20.1559 63.7662 21.545C64.4385 22.3092 64.8981 23.2366 65.0988 24.2344C65.2996 25.2322 65.2345 26.2653 64.91 27.23L62.4087 40.1075H56.3375L58.7187 27.8637C58.8846 27.3964 58.9437 26.8979 58.8918 26.4047C58.8399 25.9116 58.6783 25.4363 58.4187 25.0137C57.5504 24.3917 56.4777 24.1235 55.4187 24.2637H50.6375L47.555 40.1187H41.555L46.9512 12.4325Z" fill="#000004"/>
<path d="M78.2262 24.155C79.0353 24.0532 79.8566 24.1127 80.6425 24.3303C81.4285 24.5479 82.1635 24.9191 82.805 25.4225C83.219 26.0599 83.483 26.7828 83.5772 27.5369C83.6713 28.291 83.5932 29.0567 83.3488 29.7763C83.1344 31.5481 82.2778 33.1798 80.9413 34.3625C79.3261 35.4032 77.4163 35.8902 75.5 35.75H71.8325L74.0825 24.1663L78.2262 24.155ZM63.5375 47.465H69.5675L70.9963 40.1075H76.16C78.0607 40.1594 79.958 39.9178 81.785 39.3913C83.2844 38.8962 84.655 38.0738 85.7975 36.9838C87.7751 35.2048 89.107 32.8204 89.585 30.2038C89.9634 28.9026 90.0299 27.5305 89.7791 26.1988C89.5282 24.867 88.9671 23.6132 88.1412 22.5388C87.1454 21.5538 85.9467 20.7979 84.6287 20.3238C83.3107 19.8497 81.9051 19.6688 80.51 19.7938H68.915L63.5375 47.465Z" fill="#000004"/>
</g>
<defs>
<radialGradient id="paint0_radial_0_1" cx="0" cy="0" r="1" gradientUnits="userSpaceOnUse" gradientTransform="translate(32.0225 14.0937) scale(68.94)">
<stop stop-color="white"/>
<stop offset="0.5" stop-color="#4C6B96"/>
<stop offset="1" stop-color="#231F20"/>
</radialGradient>
<clipPath id="clip0_0_1">
<rect width="1440" height="4398" fill="transparent" transform="translate(-967 -2334)"/>
</clipPath>
</defs>
</svg>
