<svg width="70" height="70" viewBox="0 0 70 70" fill="transparent" xmlns="http://www.w3.org/2000/svg">
<rect width="70" height="70" fill="transparent"/>
<g clip-path="url(#clip0_0_1)">
<rect width="1440" height="4398" transform="translate(-1047 -1883)" fill="transparent"/>
<rect x="-986.5" y="-707.5" width="1318" height="987" rx="24.5" fill="transparent" stroke="#9A9A9A"/>
<g clip-path="url(#clip1_0_1)">
<path d="M69.7137 39.4442C72.1634 20.2677 58.6206 2.73574 39.4792 0.286289C20.3377 -2.16344 2.73574 11.3794 0.286289 30.5208C-2.16344 49.6623 11.3794 67.2293 30.5208 69.7137C49.6973 72.1634 67.2293 58.6206 69.7137 39.4442Z" fill="#FF6C37"/>
<path d="M47.6328 22.4721L32.8653 37.2397L28.7011 33.0752C43.2234 18.5529 44.6584 19.8127 47.6328 22.4721Z" fill="#E5E5E5"/>
<path d="M32.8653 37.5895C32.7603 37.5895 32.6903 37.5545 32.6205 37.4845L28.4211 33.3203C28.3879 33.2887 28.3615 33.2507 28.3434 33.2086C28.3254 33.1665 28.316 33.1211 28.316 33.0753C28.316 33.0295 28.3254 32.9841 28.3434 32.942C28.3615 32.8999 28.3879 32.8619 28.4211 32.8303C43.1886 18.0631 44.7283 19.4628 47.8428 22.2622C47.9125 22.3322 47.9475 22.4022 47.9475 22.5072C47.9475 22.6122 47.9125 22.6822 47.8428 22.7522L33.0753 37.4845C33.0403 37.5545 32.9353 37.5895 32.8653 37.5895ZM29.1911 33.0753L32.8653 36.7498L47.1078 22.5072C44.5183 20.1978 42.7683 19.4978 29.1911 33.0756V33.0753Z" fill="#FF6C37"/>
<path d="M37.0997 41.4738L33.0753 37.4494L47.8428 22.6821C51.7967 26.6716 45.8831 33.1452 37.0994 41.4738H37.0997Z" fill="#E5E5E5"/>
<path d="M37.0997 41.8239C36.9947 41.8239 36.9247 41.7889 36.8547 41.7189L32.8303 37.6944C32.7603 37.6244 32.7603 37.5544 32.7603 37.4494C32.7603 37.3444 32.7953 37.2744 32.8653 37.2047L47.6328 22.4372C47.6644 22.404 47.7024 22.3776 47.7445 22.3596C47.7866 22.3416 47.8319 22.3323 47.8777 22.3323C47.9234 22.3323 47.9688 22.3416 48.0109 22.3596C48.0529 22.3776 48.0909 22.404 48.1225 22.4372C48.5693 22.8506 48.9223 23.3551 49.1577 23.9164C49.3931 24.4778 49.5055 25.0831 49.4872 25.6916C49.4172 29.5761 45.0083 34.51 37.3794 41.7189C37.2747 41.7889 37.1697 41.8239 37.0997 41.8239ZM33.5653 37.4494C35.8047 39.7242 36.7497 40.6339 37.0997 40.9839C42.9786 35.385 48.6825 29.6461 48.7175 25.6916C48.7525 24.7819 48.4025 23.8719 47.8078 23.1722L33.5653 37.4494Z" fill="#FF6C37"/>
<path d="M28.7711 33.1802L31.7455 36.1547C31.8155 36.2247 31.8155 36.2947 31.7455 36.3647C31.7105 36.3997 31.7105 36.3997 31.6755 36.3997L25.5166 37.7294C25.2016 37.7644 24.9219 37.5544 24.8519 37.2397C24.8169 37.0647 24.8869 36.8897 24.9919 36.7847L28.5611 33.2152C28.6311 33.1452 28.7361 33.1102 28.7711 33.1802Z" fill="transparent"/>
<path d="M25.4116 38.0795C24.8866 38.0795 24.5019 37.6595 24.5019 37.1347C24.5019 36.8897 24.6069 36.6447 24.7819 36.4697L28.3511 32.9003C28.5611 32.7253 28.8411 32.7253 29.0511 32.9003L32.0256 35.8747C32.2356 36.0497 32.2356 36.3647 32.0256 36.5747C31.9556 36.6447 31.8855 36.6797 31.7805 36.7147L25.6216 38.0445C25.5516 38.0445 25.4816 38.0795 25.4116 38.0795ZM28.6661 33.565L25.2366 36.9947C25.1666 37.0647 25.1319 37.1697 25.2016 37.2747C25.2366 37.3795 25.3416 37.4145 25.4466 37.3795L31.2206 36.1197L28.6661 33.5653V33.565Z" fill="#FF6C37"/>
<path d="M55.4365 14.2838C53.1968 12.1141 49.5923 12.1841 47.4228 14.4588C45.2531 16.7333 45.3231 20.3027 47.5978 22.4722C48.4956 23.3397 49.6554 23.8857 50.896 24.025C52.1367 24.1643 53.3886 23.8891 54.4565 23.2422L50.467 19.2527L55.4365 14.2838Z" fill="#E5E5E5"/>
<path d="M51.517 24.3969C48.1925 24.3969 45.4981 21.7025 45.4981 18.378C45.4981 15.0536 48.1925 12.3591 51.517 12.3591C53.0567 12.3591 54.5614 12.9541 55.6814 14.0389C55.7512 14.1089 55.7862 14.1789 55.7862 14.2839C55.7862 14.3889 55.7512 14.4589 55.6812 14.5286L50.957 19.2528L54.6664 22.9622C54.8064 23.1022 54.8064 23.3122 54.6664 23.4522L54.5964 23.5222C53.6867 24.0819 52.6017 24.3969 51.517 24.3969ZM51.517 13.0939C48.5775 13.0939 46.1981 15.4736 46.2331 18.413C46.2331 21.3525 48.6125 23.7319 51.552 23.6969C52.357 23.6969 53.1617 23.5219 53.8967 23.1372L50.2223 19.4978C50.1523 19.4278 50.1173 19.3578 50.1173 19.2528C50.1173 19.1478 50.1523 19.0778 50.2223 19.008L54.9114 14.3186C53.9664 13.5139 52.7767 13.0939 51.517 13.0939Z" fill="#FF6C37"/>
<path d="M55.5412 14.3888L55.4715 14.3188L50.4673 19.2528L54.4215 23.2072C54.8065 22.9622 55.1915 22.6822 55.5062 22.3672C56.0364 21.8479 56.4582 21.2286 56.7472 20.5451C57.0363 19.8615 57.1868 19.1274 57.19 18.3853C57.1933 17.6432 57.0492 16.9078 56.7662 16.2218C56.4832 15.5358 56.0668 14.9128 55.5412 14.3888Z" fill="#E5E5E5"/>
<path d="M54.4564 23.5922C54.3514 23.5922 54.2814 23.5572 54.2114 23.4872L50.2222 19.4978C50.1522 19.4278 50.1172 19.3578 50.1172 19.2528C50.1172 19.1478 50.1522 19.0778 50.2222 19.008L55.1914 14.0389C55.223 14.0057 55.261 13.9793 55.3031 13.9613C55.3452 13.9433 55.3905 13.934 55.4363 13.934C55.4821 13.934 55.5274 13.9433 55.5695 13.9613C55.6116 13.9793 55.6496 14.0057 55.6812 14.0389L55.7862 14.1089C58.1309 16.4533 58.1309 20.2328 55.8212 22.6122C55.4712 22.9622 55.0864 23.2772 54.6664 23.5222C54.5614 23.5572 54.4914 23.5922 54.4564 23.5922ZM50.957 19.2528L54.4914 22.7872C54.7714 22.6122 55.0514 22.3672 55.2614 22.1572C57.2559 20.1628 57.3609 16.9083 55.4364 14.8086L50.957 19.2528Z" fill="#FF6C37"/>
<path d="M48.2275 23.1023C47.8236 22.6989 47.2761 22.4724 46.7053 22.4724C46.1345 22.4724 45.587 22.6989 45.1831 23.1023L31.9905 36.2948L34.1953 38.4995L48.1575 26.2517C49.0675 25.4817 49.1375 24.117 48.3675 23.2073C48.2975 23.1723 48.2625 23.1373 48.2275 23.1023Z" fill="#E5E5E5"/>
<path d="M34.1603 38.8492C34.0553 38.8492 33.9853 38.8142 33.9153 38.7444L31.7105 36.5397C31.6773 36.5081 31.6509 36.4701 31.6329 36.428C31.6148 36.3859 31.6055 36.3405 31.6055 36.2947C31.6055 36.2489 31.6148 36.2035 31.6329 36.1614C31.6509 36.1193 31.6773 36.0813 31.7105 36.0497L44.9031 22.8572C45.1347 22.6243 45.4101 22.4395 45.7133 22.3134C46.0166 22.1872 46.3419 22.1223 46.6703 22.1223C46.9988 22.1223 47.324 22.1872 47.6273 22.3134C47.9306 22.4395 48.2059 22.6243 48.4375 22.8572C48.6704 23.0888 48.8553 23.3642 48.9814 23.6674C49.1075 23.9707 49.1724 24.2959 49.1724 24.6244C49.1724 24.9529 49.1075 25.2781 48.9814 25.5814C48.8553 25.8846 48.6704 26.16 48.4375 26.3916L48.3325 26.4966L34.37 38.7444C34.335 38.8142 34.265 38.8492 34.1603 38.8492ZM32.4805 36.2947L34.195 38.0094L47.9125 25.9716C48.6825 25.3416 48.7525 24.1869 48.1225 23.4172C47.4928 22.6472 46.3381 22.5772 45.5681 23.2072C45.5331 23.2422 45.4981 23.2772 45.4281 23.3122L32.4805 36.295V36.2947Z" fill="#FF6C37"/>
<path d="M21.8775 51.307C21.7375 51.377 21.6675 51.517 21.7025 51.657L22.2972 54.1765C22.4372 54.5265 22.2272 54.9465 21.8425 55.0515C21.5625 55.1565 21.2475 55.0515 21.0725 54.8415L17.2233 51.027L29.7858 38.4645L34.1253 38.5345L37.0647 41.4739C36.3647 42.0687 32.1306 46.1631 21.8775 51.307Z" fill="#E5E5E5"/>
<path d="M21.5975 55.4012C21.3175 55.4012 21.0375 55.2965 20.8625 55.0865L17.048 51.272C16.9783 51.202 16.9433 51.132 16.9433 51.027C16.9433 50.9223 16.9783 50.852 17.0483 50.7823L29.6111 38.2195C29.6811 38.1495 29.7861 38.1145 29.8558 38.1145L34.1953 38.1845C34.3 38.1845 34.3703 38.2195 34.44 38.2895L37.3795 41.229C37.4495 41.299 37.4845 41.404 37.4845 41.509C37.4845 41.614 37.4495 41.684 37.3445 41.754L37.0997 41.9637C33.3903 45.2181 28.3511 48.4726 22.0875 51.587L22.6822 54.0715C22.7872 54.5265 22.5772 55.0165 22.1572 55.2615C21.9475 55.3665 21.7725 55.4015 21.5975 55.4015V55.4012ZM17.748 51.027L21.3525 54.5965C21.4575 54.7715 21.6675 54.8415 21.8425 54.7365C22.0175 54.6315 22.0875 54.4215 21.9825 54.2465L21.3875 51.727C21.3175 51.412 21.4575 51.132 21.7375 50.992C27.9314 47.8776 32.9353 44.6584 36.6097 41.4737L34.0203 38.8842L29.9958 38.8142L17.748 51.027Z" fill="#FF6C37"/>
<path d="M14.2488 54.0367L17.2583 51.027L21.7372 55.5062L14.5985 55.0164C14.2838 54.9814 14.0735 54.7014 14.1088 54.3864C14.1088 54.2464 14.1438 54.1064 14.2488 54.0364V54.0367Z" fill="#E5E5E5"/>
<path d="M21.7374 55.8212L14.5635 55.3314C14.0385 55.2964 13.6888 54.8414 13.7238 54.3164C13.7588 54.1064 13.8288 53.8967 14.0038 53.7567L17.0133 50.7473C17.0449 50.7141 17.0829 50.6876 17.125 50.6696C17.1671 50.6515 17.2124 50.6422 17.2583 50.6422C17.3041 50.6422 17.3494 50.6515 17.3916 50.6696C17.4337 50.6876 17.4717 50.7141 17.5033 50.7473L21.9822 55.2262C22.0874 55.3314 22.1222 55.4714 22.0524 55.6112C21.9824 55.7512 21.8774 55.8212 21.7374 55.8212ZM17.2583 51.5173L14.4938 54.2817C14.3888 54.3514 14.3888 54.5264 14.4938 54.5964C14.5285 54.6314 14.5635 54.6664 14.6335 54.6664L20.8274 55.0864L17.2583 51.517V51.5173Z" fill="#FF6C37"/>
<path d="M28.5611 40.0741C28.3511 40.0741 28.2111 39.8991 28.2111 39.7241C28.2111 39.6191 28.2461 39.5491 28.3161 39.4791L31.7105 36.0847C31.7421 36.0515 31.7801 36.025 31.8223 36.007C31.8644 35.9889 31.9097 35.9796 31.9555 35.9796C32.0014 35.9796 32.0467 35.9889 32.0888 36.007C32.1309 36.025 32.169 36.0515 32.2005 36.0847L34.405 38.2894C34.51 38.3944 34.545 38.4994 34.51 38.6394C34.475 38.7444 34.37 38.8491 34.2303 38.8841L28.6311 40.0741H28.5611ZM31.9555 36.8197L29.6461 39.1291L33.4253 38.3244L31.9555 36.8197Z" fill="#FF6C37"/>
<path d="M34.125 38.5345L30.2758 39.3742C29.9958 39.4442 29.7158 39.2692 29.6461 38.9892C29.6111 38.8142 29.6461 38.6392 29.7858 38.4995L31.9205 36.3647L34.1253 38.5345H34.125Z" fill="#E5E5E5"/>
<path d="M30.2058 39.7241C30.0906 39.7253 29.9763 39.7034 29.8696 39.6599C29.7629 39.6163 29.666 39.5519 29.5845 39.4704C29.503 39.3889 29.4386 39.292 29.395 39.1853C29.3515 39.0786 29.3297 38.9643 29.3308 38.8491C29.3308 38.6044 29.4361 38.3944 29.5761 38.2194L31.7106 36.0847C31.7421 36.0515 31.7802 36.025 31.8223 36.007C31.8644 35.9889 31.9097 35.9796 31.9555 35.9796C32.0014 35.9796 32.0467 35.9889 32.0888 36.007C32.1309 36.025 32.169 36.0515 32.2006 36.0847L34.405 38.2894C34.51 38.3944 34.545 38.4994 34.51 38.6394C34.475 38.7444 34.37 38.8491 34.2303 38.8841L30.3808 39.7241H30.2058ZM31.9555 36.8197L30.0661 38.7091C29.9958 38.7794 29.9958 38.8491 30.0308 38.9191C30.0658 38.9891 30.1358 39.0241 30.2408 39.0241L33.4603 38.3241L31.9555 36.8197Z" fill="#FF6C37"/>
<path d="M55.5762 17.748C55.5062 17.5383 55.2615 17.4333 55.0512 17.5033C54.8415 17.573 54.7365 17.818 54.8065 18.0283C54.8065 18.063 54.8415 18.098 54.8415 18.133C55.0515 18.553 54.9815 19.0777 54.7015 19.4627C54.5615 19.6377 54.5965 19.8827 54.7365 20.0227C54.9115 20.1627 55.1565 20.1277 55.2965 19.9527C55.8215 19.2877 55.9262 18.448 55.5762 17.748Z" fill="#FF6C37"/>
</g>
</g>
<defs>
<clipPath id="clip0_0_1">
<rect width="1440" height="4398" fill="transparent" transform="translate(-1047 -1883)"/>
</clipPath>
<clipPath id="clip1_0_1">
<rect width="70" height="70" fill="transparent"/>
</clipPath>
</defs>
</svg>
