<svg width="47" height="70" viewBox="0 0 47 70" fill="none" xmlns="http://www.w3.org/2000/svg">
<path d="M35 46.6667C41.4433 46.6667 46.6667 41.4434 46.6667 35C46.6667 28.5567 41.4433 23.3334 35 23.3334C28.5567 23.3334 23.3333 28.5567 23.3333 35C23.3333 41.4434 28.5567 46.6667 35 46.6667Z" fill="#19BCFE"/>
<path fill-rule="evenodd" clip-rule="evenodd" d="M11.6667 70C14.7609 70 17.7283 68.7708 19.9162 66.5829C22.1042 64.3949 23.3333 61.4275 23.3333 58.3333V46.6666H11.6667C8.57247 46.6666 5.60501 47.8958 3.41709 50.0837C1.22916 52.2716 0 55.2391 0 58.3333C0 61.4275 1.22916 64.3949 3.41709 66.5829C5.60501 68.7708 8.57247 70 11.6667 70Z" fill="#09CF83"/>
<path fill-rule="evenodd" clip-rule="evenodd" d="M11.6667 46.6667H23.3333V23.3334H11.6667C8.57247 23.3334 5.60501 24.5625 3.41709 26.7505C1.22916 28.9384 0 31.9058 0 35C0 38.0942 1.22916 41.0617 3.41709 43.2496C5.60501 45.4375 8.57247 46.6667 11.6667 46.6667Z" fill="#A259FF"/>
<path fill-rule="evenodd" clip-rule="evenodd" d="M11.6667 23.3333H23.3333V0H11.6667C8.57247 0 5.60501 1.22916 3.41709 3.41709C1.22916 5.60501 0 8.57247 0 11.6667C0 14.7609 1.22916 17.7283 3.41709 19.9162C5.60501 22.1042 8.57247 23.3333 11.6667 23.3333Z" fill="#F24E1E"/>
<path fill-rule="evenodd" clip-rule="evenodd" d="M35 23.3333H23.3333V0H35C38.0942 0 41.0617 1.22916 43.2496 3.41709C45.4375 5.60501 46.6667 8.57247 46.6667 11.6667C46.6667 14.7609 45.4375 17.7283 43.2496 19.9162C41.0617 22.1042 38.0942 23.3333 35 23.3333Z" fill="#FF7262"/>
</svg>
