<svg width="70" height="70" viewBox="0 0 70 70" fill="transparent" xmlns="http://www.w3.org/2000/svg">
<rect width="70" height="70" fill="transparent"/>
<g clip-path="url(#clip0_0_1)">
<rect width="1440" height="4398" transform="translate(-194 -1839)" fill="transparent"/>
<rect x="-133.5" y="-663.5" width="1318" height="987" rx="24.5" fill="transparent" stroke="#9A9A9A"/>
<path d="M56 70H14C10.287 70 6.72601 68.525 4.10051 65.8995C1.475 63.274 0 59.713 0 56V14C0 10.287 1.475 6.72601 4.10051 4.10051C6.72601 1.475 10.287 0 14 0H56C59.713 0 63.274 1.475 65.8995 4.10051C68.525 6.72601 70 10.287 70 14V56C70 59.713 68.525 63.274 65.8995 65.8995C63.274 68.525 59.713 70 56 70ZM14 7C12.1435 7 10.363 7.7375 9.05025 9.05025C7.7375 10.363 7 12.1435 7 14V56C7 57.8565 7.7375 59.637 9.05025 60.9497C10.363 62.2625 12.1435 63 14 63H56C57.8565 63 59.637 62.2625 60.9497 60.9497C62.2625 59.637 63 57.8565 63 56V14C63 12.1435 62.2625 10.363 60.9497 9.05025C59.637 7.7375 57.8565 7 56 7H14ZM48.167 51.716C46.6535 51.777 45.1433 51.5291 43.7287 50.9876C42.314 50.446 41.0244 49.6221 39.9385 48.566C37.6649 45.974 36.4987 42.5935 36.6905 39.151C36.6201 35.8052 37.8136 32.5558 40.033 30.051C41.1932 28.8244 42.5997 27.8569 44.1602 27.2121C45.7206 26.5673 47.3998 26.2597 49.0875 26.3095H49.903V19.3095C49.903 18.7635 50.3475 18.319 50.8935 18.3155H55.503C55.7589 18.3059 56.0089 18.3935 56.203 18.5605C56.2977 18.6502 56.3723 18.759 56.4217 18.8797C56.4712 19.0003 56.4945 19.1301 56.49 19.2605V46.137C56.4725 47.0645 56.5215 47.992 56.63 48.9125V49C56.6354 49.2225 56.5664 49.4405 56.434 49.6195C56.3197 49.76 56.1749 49.8725 56.0105 49.9485C53.5815 51.1079 50.9251 51.7129 48.2335 51.7195L48.167 51.716ZM44.961 33.81L44.9435 33.831C43.835 35.29 43.2772 37.0935 43.3685 38.9235C43.2248 40.8303 43.7755 42.7248 44.919 44.2575C45.8535 45.2865 47.201 45.8465 48.5905 45.7765C49.0315 45.7835 49.4725 45.738 49.903 45.6435V32.172C49.5764 32.1021 49.243 32.068 48.909 32.0705C48.1622 32.0505 47.4204 32.1971 46.7375 32.4999C46.0545 32.8026 45.4477 33.2537 44.961 33.8205V33.81ZM35.7875 51.31H30.709C30.4479 51.3271 30.1881 51.262 29.9659 51.1239C29.7437 50.9858 29.5703 50.7816 29.47 50.54L28.735 49L28.7175 48.9615L28 47.53L27.776 47.0645C26.6595 44.7615 25.508 42.3885 24.353 39.9455C22.7471 43.5036 21.0938 47.04 19.3935 50.554V50.589L19.376 50.6205C19.2589 50.8168 19.0954 50.9814 18.9 51.1C18.7013 51.2186 18.4734 51.2793 18.242 51.275H13.4435C13.2428 51.2849 13.0444 51.229 12.8783 51.116C12.7122 51.0029 12.5875 50.8388 12.523 50.6485C12.4809 50.5036 12.4725 50.3509 12.4986 50.2023C12.5247 50.0536 12.5845 49.9129 12.6735 49.791L20.475 34.8775L12.929 19.7785C12.8275 19.6316 12.7697 19.459 12.7622 19.2806C12.7548 19.1022 12.7981 18.9253 12.887 18.7705C12.9725 18.6301 13.0928 18.5141 13.2363 18.4338C13.3798 18.3534 13.5416 18.3115 13.706 18.312H18.725C18.9688 18.299 19.2114 18.3548 19.425 18.473C19.642 18.606 19.81 18.8055 19.901 19.0435C21.777 22.981 23.359 26.3935 24.7415 29.421C26.46 25.571 28.287 21.658 29.512 19.0645L29.5295 19.026L29.5505 18.991V18.9525C29.6382 18.8028 29.748 18.6671 29.876 18.55C30.0926 18.3693 30.3675 18.2735 30.6495 18.2805H35.35C35.5297 18.2757 35.707 18.3231 35.8604 18.4168C36.0139 18.5106 36.1368 18.6468 36.2145 18.809C36.2763 18.9576 36.3013 19.1188 36.2873 19.2791C36.2732 19.4394 36.2207 19.5939 36.134 19.7295L28.5845 34.384L36.5715 49.784C36.6555 49.9177 36.7083 50.0687 36.7258 50.2257C36.7434 50.3826 36.7253 50.5415 36.673 50.6905C36.607 50.8717 36.4864 51.028 36.3278 51.1377C36.1691 51.2475 35.9804 51.3052 35.7875 51.303V51.31Z" fill="#2C2C2C"/>
</g>
<defs>
<clipPath id="clip0_0_1">
<rect width="1440" height="4398" fill="transparent" transform="translate(-194 -1839)"/>
</clipPath>
</defs>
</svg>
