<svg width="151" height="150" viewBox="0 0 151 150" fill="transparent" xmlns="http://www.w3.org/2000/svg">
<rect width="151" height="150" fill="transparent"/>
<g clip-path="url(#clip0_0_1)">
<rect width="1440" height="4398" transform="translate(-203 -1220)" fill="transparent"/>
<rect x="-143.5" y="-62.5" width="1318" height="987" rx="24.5" fill="transparent" stroke="#9A9A9A"/>
<path d="M69.643 26.7853C63.643 26.7853 58.0394 28.4246 53.2501 31.2854C52.7338 25.791 50.9752 20.4859 48.1073 15.771C55.0535 12.3019 62.7347 10.5616 70.4978 10.6982C78.2609 10.8348 85.8762 12.8442 92.6961 16.5555C99.516 20.2668 105.339 25.5703 109.669 32.0149C113.999 38.4594 116.709 45.8545 117.568 53.5711H131.261C141.611 53.5711 150.011 61.9712 150.011 72.3212V120.536C150.011 122.999 149.526 125.438 148.583 127.713C147.64 129.989 146.258 132.056 144.516 133.798C142.773 135.539 140.705 136.92 138.429 137.861C136.153 138.803 133.714 139.287 131.25 139.286H83.0359C78.0631 139.286 73.294 137.31 69.7777 133.794C66.2613 130.278 64.2859 125.508 64.2859 120.536V106.853C60.5716 106.441 56.9182 105.596 53.4001 104.336C53.5073 101.807 53.5716 99.1713 53.5716 96.4284V95.5713C53.5716 92.9998 53.5716 89.9677 53.4644 86.7105C56.8035 88.6662 60.4703 89.9985 64.2859 90.6427V72.3212C64.2859 61.9712 72.6859 53.5711 83.0359 53.5711H101.347C100.08 46.0796 96.2013 39.2788 90.3976 34.3754C84.5939 29.472 77.2408 26.7829 69.643 26.7853ZM116.668 69.6426C114.643 78.4975 110.162 86.6018 103.739 93.0247C97.3165 99.4476 89.2122 103.929 80.3574 105.953V120.536C80.3574 122.014 81.5574 123.214 83.0359 123.214H131.25C131.961 123.214 132.642 122.932 133.144 122.43C133.647 121.927 133.929 121.246 133.929 120.536V72.3212C133.929 71.6108 133.647 70.9295 133.144 70.4272C132.642 69.9248 131.961 69.6426 131.25 69.6426H116.668ZM99.9538 69.6426H83.0359C82.3255 69.6426 81.6442 69.9248 81.1419 70.4272C80.6396 70.9295 80.3574 71.6108 80.3574 72.3212V89.2498C84.8788 87.6469 88.9853 85.0548 92.3774 81.6627C95.7695 78.2706 98.3616 74.164 99.9646 69.6426H99.9538Z" fill="#A0927F"/>
<path d="M27.6429 1.33886C28.534 2.11539 29.1433 3.16482 29.3759 4.32369C29.6084 5.48257 29.4512 6.68582 28.9287 7.74602C28.838 8.05948 28.7911 8.38399 28.7894 8.71031C28.7894 9.38531 28.9608 10.671 30.5787 12.2782C31.3608 13.0603 31.9608 13.6175 32.6144 14.2282C33.1501 14.721 33.718 15.2353 34.4358 15.9425C35.8287 17.271 37.2965 18.8353 38.6144 20.7961C41.3465 24.8996 42.8573 30.0318 42.8573 37.4997C42.8573 46.414 39.643 54.0319 34.5858 58.8426C37.7144 62.014 39.5358 66.1605 40.6608 70.3069C42.8573 78.3641 42.8573 88.3284 42.8573 96.032V96.4284C42.8573 118.478 38.7323 131.571 34.0608 139.361C32.2961 142.428 29.9784 145.141 27.2251 147.364C26.1347 148.215 24.9479 148.934 23.6894 149.507C23.6894 149.507 22.3286 150 21.4286 150C20.6562 149.939 19.8957 149.773 19.1679 149.507C17.9094 148.934 16.7226 148.215 15.6322 147.364C12.8789 145.141 10.5612 142.428 8.79645 139.361C4.12501 131.582 0 118.478 0 96.4284V96.0427C0 88.3284 4.78967e-07 78.3748 2.19644 70.2962C3.32144 66.1605 5.14287 62.014 8.27145 58.8319C3.21429 54.0426 0 46.414 0 37.4997C0 34.0068 0.932146 29.8389 2.21786 25.9925C3.50358 22.1353 5.30359 18.1496 7.38216 14.9353C9.85717 10.7567 13.3393 7.25316 16.0393 4.89601C17.5196 3.59418 19.0644 2.36763 20.6679 1.221L20.9893 1.00672L21.0858 0.931716L21.1179 0.910288L21.1393 0.899573C22.1218 0.244678 23.2931 -0.0672974 24.4712 0.0121435C25.6492 0.0915845 26.768 0.557991 27.6537 1.33886H27.6429Z" fill="#A0927F"/>
</g>
<defs>
<clipPath id="clip0_0_1">
<rect width="1440" height="4398" fill="transparent" transform="translate(-203 -1220)"/>
</clipPath>
</defs>
</svg>
