<svg width="80" height="80" viewBox="0 0 80 80" fill="transparent" xmlns="http://www.w3.org/2000/svg">
<rect width="80" height="80" fill="transparent"/>
<g clip-path="url(#clip0_0_1)">
<rect width="1440" height="4398" transform="translate(-740 -1891)" fill="transparent"/>
<rect x="-679.5" y="-715.5" width="1318" height="987" rx="24.5" fill="transparent" stroke="#9A9A9A"/>
<path d="M14.755 68.0025L9.14 5H70.86L65.2375 67.9925L39.9625 75L14.755 68.0025Z" fill="#1572B6"/>
<path d="M40 69.6451L60.425 63.9826L65.23 10.1526H40V69.6451Z" fill="#33A9DC"/>
<path d="M40 32.9775H50.225L50.93 25.065H40V17.3375H59.375L59.19 19.41L57.2925 40.705H40V32.9775Z" fill="#E5E5E5"/>
<path d="M40.0475 53.045L40.0125 53.055L31.4075 50.73L30.8575 44.5675H23.1L24.1825 56.7L40.01 61.095L40.0475 61.085V53.045Z" fill="#EBEBEB"/>
<path d="M49.5675 40.3776L48.6375 50.7251L40.02 53.0501V61.0901L55.86 56.7001L55.9775 55.3951L57.32 40.3776H49.5675Z" fill="#E5E5E5"/>
<path d="M40.0275 17.3375V25.065H21.3625L21.2075 23.3275L20.855 19.41L20.67 17.3375H40.0275Z" fill="#EBEBEB"/>
<path d="M40 32.9775V40.705H31.5025L31.3475 38.9675L30.9975 35.05L30.8125 32.9775H40Z" fill="#EBEBEB"/>
</g>
<defs>
<clipPath id="clip0_0_1">
<rect width="1440" height="4398" fill="transparent" transform="translate(-740 -1891)"/>
</clipPath>
</defs>
</svg>
