<svg width="70" height="70" viewBox="0 0 70 70" fill="transparent" xmlns="http://www.w3.org/2000/svg">
<rect width="70" height="70" fill="transparent"/>
<g clip-path="url(#clip0_0_1)">
<rect width="1440" height="4398" transform="translate(-612 -1984)" fill="transparent"/>
<rect x="-551.5" y="-808.5" width="1318" height="987" rx="24.5" fill="transparent" stroke="#9A9A9A"/>
<path d="M35 0C15.6702 0 0 15.6699 0 35C0 54.3301 15.6702 70 35 70C54.3301 70 70 54.3301 70 35C70 15.6699 54.3301 0 35 0ZM7.52063 35.3648L34.635 62.4794C19.7463 62.2852 7.71449 50.254 7.52063 35.3648ZM41.1512 61.7925L8.2075 28.8487C11.0015 16.6316 21.936 7.51598 35 7.51598C44.132 7.51598 52.2225 11.9711 57.2204 18.8254L53.4149 22.1829C49.3609 16.3691 42.6251 12.5642 35 12.5642C25.2916 12.5642 17.0242 18.7307 13.8991 27.3607L42.6398 56.1009C49.6193 53.5735 54.9872 47.6818 56.7848 40.3845H44.8722V35H62.4843C62.4843 48.0643 53.369 58.9988 41.1515 61.7922L41.1512 61.7925Z" fill="#744C9E"/>
</g>
<defs>
<clipPath id="clip0_0_1">
<rect width="1440" height="4398" fill="transparent" transform="translate(-612 -1984)"/>
</clipPath>
</defs>
</svg>
