<svg width="80" height="80" viewBox="0 0 80 80" fill="transparent" xmlns="http://www.w3.org/2000/svg">
<rect width="80" height="80" fill="transparent"/>
<g clip-path="url(#clip0_0_1)">
<rect width="1440" height="4398" transform="translate(-740 -1979)" fill="transparent"/>
<rect x="-679.5" y="-803.5" width="1318" height="987" rx="24.5" fill="transparent" stroke="#9A9A9A"/>
<path d="M14.755 68.0025L9.1375 5H70.8625L65.2375 67.9925L39.9625 75L14.755 68.0025Z" fill="#E44F26"/>
<path d="M40 69.6451L60.425 63.9826L65.23 10.1526H40V69.6451Z" fill="#F1662A"/>
<path d="M40 33.5174H29.775L29.07 25.6049H40V17.8774H20.625L20.81 19.9524L22.7075 41.2449H40V33.5174Z" fill="#EBEBEB"/>
<path d="M40 53.5849L39.965 53.5949L31.36 51.2724L30.81 45.1099H23.0525L24.135 57.2399L39.965 61.6349L40 61.6249V53.5849Z" fill="#EBEBEB"/>
<path d="M39.9725 33.5175V41.245H49.4875L48.5925 51.2675L39.9725 53.5925V61.6325L55.815 57.24L55.93 55.935L57.745 35.5925L57.935 33.5175H39.9725Z" fill="#E5E5E5"/>
<path d="M39.9725 17.8774V25.6049H58.6375L58.7925 23.8699L59.145 19.9524L59.33 17.8774H39.9725Z" fill="#E5E5E5"/>
</g>
<defs>
<clipPath id="clip0_0_1">
<rect width="1440" height="4398" fill="transparent" transform="translate(-740 -1979)"/>
</clipPath>
</defs>
</svg>
