<svg width="188" height="150" viewBox="0 0 188 150" fill="transparent" xmlns="http://www.w3.org/2000/svg">
<rect width="188" height="150" fill="transparent"/>
<g clip-path="url(#clip0_0_1)">
<rect width="1440" height="4398" transform="translate(-622 -1220)" fill="transparent"/>
<rect x="-562.5" y="-62.5" width="1318" height="987" rx="24.5" fill="transparent" stroke="#9A9A9A"/>
<path d="M74.7158 76.6553C76.5469 78.4863 79.5146 78.4863 81.3457 76.6553L84.6592 73.3418C86.4902 71.5107 86.4902 68.543 84.6592 66.7119L74.1943 56.25L84.6562 45.7852C86.4873 43.9541 86.4873 40.9863 84.6562 39.1553L81.3428 35.8418C79.5117 34.0107 76.5439 34.0107 74.7129 35.8418L57.6211 52.9336C55.79 54.7646 55.79 57.7324 57.6211 59.5635L74.7158 76.6553ZM102.844 73.3447L106.157 76.6582C107.988 78.4893 110.956 78.4893 112.787 76.6582L129.879 59.5664C131.71 57.7354 131.71 54.7676 129.879 52.9365L112.787 35.8447C110.956 34.0137 107.988 34.0137 106.157 35.8447L102.844 39.1582C101.013 40.9893 101.013 43.957 102.844 45.7881L113.306 56.25L102.844 66.7148C101.013 68.5459 101.013 71.5137 102.844 73.3447ZM182.812 121.875H111.779C111.562 127.679 107.47 131.25 102.188 131.25H84.375C78.8994 131.25 74.7012 126.132 74.7744 121.875H4.6875C2.10938 121.875 0 123.984 0 126.562V131.25C0 141.562 8.4375 150 18.75 150H168.75C179.062 150 187.5 141.562 187.5 131.25V126.562C187.5 123.984 185.391 121.875 182.812 121.875ZM168.75 14.0625C168.75 6.32812 162.422 0 154.688 0H32.8125C25.0781 0 18.75 6.32812 18.75 14.0625V112.5H168.75V14.0625ZM150 93.75H37.5V18.75H150V93.75Z" fill="#A0927F"/>
</g>
<defs>
<clipPath id="clip0_0_1">
<rect width="1440" height="4398" fill="transparent" transform="translate(-622 -1220)"/>
</clipPath>
</defs>
</svg>
