<svg width="117" height="70" viewBox="0 0 117 70" fill="transparent" xmlns="http://www.w3.org/2000/svg">
<rect width="117" height="70" fill="transparent"/>
<g clip-path="url(#clip0_0_1)">
<rect width="1440" height="4398" transform="translate(-612 -1805)" fill="transparent"/>
<rect x="-551.5" y="-629.5" width="1318" height="987" rx="24.5" fill="transparent" stroke="#9A9A9A"/>
<path d="M27.3783 18.257H49.2629V19.9965H29.3844V33.0879H48.0776V34.8272H29.3844V49.2003H49.4908V50.9396H27.3783V18.257ZM51.2236 18.257H53.5488L63.8526 32.6301L74.3845 18.2568L88.7095 0L65.1747 34.1408L77.3025 50.9396H74.886L63.8526 35.6512L52.7735 50.9396H50.4028L62.6216 34.1405L51.2236 18.257ZM78.1686 19.9965V18.2568H103.108V19.9963H91.6185V50.9394H89.6124V19.9965H78.1686ZM0 18.2568H2.50758L37.0857 70L22.7965 50.9394L2.09717 20.7288L2.00607 50.9399H0V18.2568ZM102.906 48.675C102.496 48.675 102.189 48.3577 102.189 47.9471C102.189 47.5369 102.496 47.2192 102.906 47.2192C103.321 47.2192 103.623 47.5367 103.623 47.9471C103.623 48.3575 103.321 48.675 102.906 48.675ZM104.877 46.76H105.951C105.965 47.3413 106.39 47.7322 107.014 47.7322C107.712 47.7322 108.107 47.3121 108.107 46.5255V41.542H109.2V46.5302C109.2 47.9471 108.38 48.7632 107.024 48.7632C105.75 48.7632 104.877 47.9718 104.877 46.76ZM110.63 46.6966H111.713C111.806 47.3658 112.459 47.7907 113.401 47.7907C114.279 47.7907 114.923 47.3363 114.923 46.7111C114.923 46.1738 114.514 45.8513 113.582 45.6315L112.674 45.4116C111.4 45.1134 110.82 44.4979 110.82 43.4622C110.82 42.2067 111.845 41.3712 113.382 41.3712C114.811 41.3712 115.855 42.2065 115.919 43.3938H114.855C114.753 42.744 114.187 42.3384 113.367 42.3384C112.503 42.3384 111.928 42.7538 111.928 43.3888C111.928 43.8919 112.298 44.1804 113.216 44.3952L113.991 44.5858C115.436 44.923 116.031 45.5093 116.031 46.5694C116.031 47.9179 114.987 48.7632 113.318 48.7632C111.757 48.7632 110.708 47.9571 110.63 46.6966Z" fill="black"/>
</g>
<defs>
<clipPath id="clip0_0_1">
<rect width="1440" height="4398" fill="transparent" transform="translate(-612 -1805)"/>
</clipPath>
</defs>
</svg>
